#!OML:ASF G:\JayActor3\Patient Classification 1\Patient 1\Session 2\male.ASF
:FULLY-SPECIFIED
:DEGREES
4871
root 21.7581 16.8432 -6.29401 5711.64 89.1046 -768.877
lowerback -0.0221623 -0.438569 -2.44975
upperback 6.94033 -0.199792 -1.65867
thorax 7.25429 -0.110339 -0.366979
lowerneck -10.3402 -1.57567 -0.899578
upperneck 31.8587 -1.54237 1.75163
head 12.2138 -0.217893 0.693221
rclavicle 1.59028e-015 -7.95139e-016
rhumerus -28.8711 -0.849772 -87.9258
rradius 25.5471
rwrist -2.49374
rhand -20.7689 6.12675
rfingers 7.12502
rthumb 5.59749 -23.7793
lclavicle 1.59028e-015 -7.95139e-016
lhumerus -10.4631 -3.05905 86.1382
lradius 28.4063
lwrist 8.92681
lhand -19.7846 15.9259
lfingers 7.12502
lthumb 6.54774 45.8047
rfemur -21.3215 -1.72055 20.1884
rtibia 62.073
rfoot -18.9244 -11.4846
rtoes 14.4641
lfemur -7.48402 9.19759 -23.3869
ltibia 24.456
lfoot -13.1154 1.61326
ltoes -5.45768
4872
root 21.849 16.8323 -6.30245 5711.96 89.0963 -768.54
lowerback 0.034198 -0.455452 -2.52818
upperback 6.9898 -0.219396 -1.62453
thorax 7.27623 -0.125349 -0.288743
lowerneck -10.3272 -1.56803 -0.913724
upperneck 31.9865 -1.49462 1.67751
head 12.262 -0.203911 0.675703
rclavicle 3.18055e-015 1.27222e-014
rhumerus -29.0236 -0.837381 -87.8283
rradius 25.6501
rwrist -2.54841
rhand -20.8252 6.14987
rfingers 7.12502
rthumb 5.54313 -23.7576
lclavicle 3.18055e-015 1.27222e-014
lhumerus -10.0314 -3.4665 86.1599
lradius 28.9459
lwrist 9.31007
lhand -19.8285 15.9033
lfingers 7.12502
lthumb 6.50538 45.7834
rfemur -21.9939 -1.34827 20.3288
rtibia 61.2091
rfoot -19.5519 -11.5091
rtoes 14.2029
lfemur -7.29271 9.07791 -23.378
ltibia 24.8051
lfoot -13.3887 1.72016
ltoes -6.02804
4873
root 21.9399 16.8231 -6.31 5712.73 89.0959 -767.76
lowerback 0.0784794 -0.47273 -2.61692
upperback 7.03507 -0.23881 -1.59419
thorax 7.3009 -0.140907 -0.208755
lowerneck -10.3133 -1.55703 -0.920759
upperneck 32.1023 -1.44518 1.60638
head 12.3052 -0.188365 0.658092
rclavicle 1.98785e-015 -3.18055e-015
rhumerus -29.1616 -0.843066 -87.7369
rradius 25.7412
rwrist -2.62014
rhand -20.9022 6.17711
rfingers 7.12502
rthumb 5.46881 -23.7323
lclavicle 1.98785e-015 -3.18055e-015
lhumerus -9.62841 -3.86689 86.1695
lradius 29.5024
lwrist 9.65733
lhand -19.8446 15.9452
lfingers 7.12502
lthumb 6.48988 45.8258
rfemur -22.6594 -0.969652 20.4508
rtibia 60.2812
rfoot -20.0881 -11.5151
rtoes 13.9069
lfemur -7.08927 8.97954 -23.3736
ltibia 25.1013
lfoot -13.6111 1.79414
ltoes -6.63463
4874
root 22.0309 16.8158 -6.31674 5714.05 89.1027 -766.44
lowerback 0.111848 -0.490562 -2.71531
upperback 7.07529 -0.258324 -1.56826
thorax 7.32672 -0.157097 -0.128043
lowerneck -10.2986 -1.54383 -0.927442
upperneck 32.2081 -1.39614 1.54472
head 12.3444 -0.172114 0.643793
rclavicle -9.34288e-015 -1.03368e-014
rhumerus -29.2801 -0.871644 -87.6493
rradius 25.8109
rwrist -2.69717
rhand -20.9841 6.21303
rfingers 7.12502
rthumb 5.38971 -23.6984
lclavicle -9.34288e-015 -1.03368e-014
lhumerus -9.25621 -4.26313 86.1674
lradius 30.0713
lwrist 9.97613
lhand -19.8413 16.0394
lfingers 7.12502
lthumb 6.49304 45.9198
rfemur -23.3155 -0.587418 20.5533
rtibia 59.2913
rfoot -20.571 -11.475
rtoes 13.7374
lfemur -6.85902 8.89807 -23.3752
ltibia 25.3219
lfoot -13.7846 1.83596
ltoes -7.19124
4875
root 22.1222 16.811 -6.32264 5716 89.1153 -764.512
lowerback 0.136014 -0.50927 -2.82251
upperback 7.10932 -0.278515 -1.54706
thorax 7.35146 -0.174135 -0.0474306
lowerneck -10.282 -1.52801 -0.932252
upperneck 32.3075 -1.34567 1.4883
head 12.3806 -0.154563 0.631249
rclavicle 0 -9.54166e-015
rhumerus -29.3826 -0.925368 -87.5649
rradius 25.862
rwrist -2.76523
rhand -21.0487 6.23919
rfingers 7.12502
rthumb 5.32734 -23.6738
lclavicle 0 -9.54166e-015
lhumerus -8.91753 -4.66161 86.1535
lradius 30.648
lwrist 10.2713
lhand -19.8291 16.1617
lfingers 7.12502
lthumb 6.50483 46.0418
rfemur -23.9564 -0.202763 20.6365
rtibia 58.2398
rfoot -20.9911 -11.4156
rtoes 13.5909
lfemur -6.58884 8.82956 -23.3826
ltibia 25.4466
lfoot -13.9105 1.85084
ltoes -7.67962
4876
root 22.214 16.8091 -6.32788 5718.86 89.1338 -761.669
lowerback 0.155674 -0.527889 -2.93865
upperback 7.13933 -0.297864 -1.53287
thorax 7.37472 -0.191118 0.0308773
lowerneck -10.2691 -1.50962 -0.931272
upperneck 32.4049 -1.29322 1.43263
head 12.4169 -0.135487 0.618164
rclavicle -1.98785e-015 5.56597e-015
rhumerus -29.4673 -1.00845 -87.4835
rradius 25.8946
rwrist -2.80809
rhand -21.0968 6.26022
rfingers 7.12502
rthumb 5.2809 -23.654
lclavicle -1.98785e-015 5.56597e-015
lhumerus -8.61011 -5.0683 86.1275
lradius 31.226
lwrist 10.5567
lhand -19.8148 16.2986
lfingers 7.12502
lthumb 6.51865 46.1783
rfemur -24.5734 0.180823 20.6949
rtibia 57.1256
rfoot -21.3438 -11.3581
rtoes 13.4117
lfemur -6.2638 8.77751 -23.3999
ltibia 25.4603
lfoot -13.9893 1.83863
ltoes -8.09079
4877
root 22.3063 16.8101 -6.33254 5722.62 89.1529 -757.946
lowerback 0.171996 -0.547031 -3.05918
upperback 7.16814 -0.317256 -1.52484
thorax 7.39883 -0.208219 0.105163
lowerneck -10.2656 -1.4893 -0.927671
upperneck 32.4997 -1.23989 1.37937
head 12.4541 -0.115637 0.605556
rclavicle 1.47101e-014 2.8625e-014
rhumerus -29.5277 -1.11158 -87.4066
rradius 25.9061
rwrist -2.82312
rhand -21.1134 6.27166
rfingers 7.12502
rthumb 5.2649 -23.6429
lclavicle 1.47101e-014 2.8625e-014
lhumerus -8.32956 -5.48453 86.0887
lradius 31.7947
lwrist 10.8517
lhand -19.8191 16.3864
lfingers 7.12502
lthumb 6.51442 46.2662
rfemur -25.1592 0.563359 20.7331
rtibia 55.9483
rfoot -21.6327 -11.3164
rtoes 13.22
lfemur -5.87893 8.74198 -23.4233
ltibia 25.3579
lfoot -14.0267 1.8019
ltoes -8.40823
4878
root 22.3991 16.8141 -6.33683 5727.11 89.168 -753.48
lowerback 0.185093 -0.565799 -3.17714
upperback 7.19548 -0.335808 -1.52283
thorax 7.42328 -0.224574 0.171746
lowerneck -10.2662 -1.4674 -0.917106
upperneck 32.5912 -1.18507 1.32251
head 12.4909 -0.0949344 0.590458
rclavicle 1.59028e-015 7.95139e-015
rhumerus -29.5673 -1.24161 -87.3332
rradius 25.8997
rwrist -2.80921
rhand -21.1092 6.28728
rfingers 7.12502
rthumb 5.26894 -23.6272
lclavicle 1.59028e-015 7.95139e-015
lhumerus -8.07606 -5.90814 86.0379
lradius 32.3482
lwrist 11.1444
lhand -19.8332 16.428
lfingers 7.12502
lthumb 6.50082 46.3083
rfemur -25.7082 0.940137 20.7547
rtibia 54.7082
rfoot -21.8681 -11.3034
rtoes 13.0055
lfemur -5.43581 8.72579 -23.4499
ltibia 25.1435
lfoot -14.0192 1.7492
ltoes -8.68809
4879
root 22.4924 16.8207 -6.34085 5731.86 89.1737 -748.764
lowerback 0.193201 -0.584068 -3.2828
upperback 7.22138 -0.353827 -1.52507
thorax 7.44898 -0.239823 0.226988
lowerneck -10.2686 -1.44521 -0.904397
upperneck 32.6762 -1.13123 1.26691
head 12.5255 -0.0745064 0.575216
rclavicle 9.34288e-015 2.54444e-014
rhumerus -29.5889 -1.40103 -87.2628
rradius 25.8777
rwrist -2.76276
rhand -21.0915 6.30687
rfingers 7.12502
rthumb 5.28602 -23.6072
lclavicle 9.34288e-015 2.54444e-014
lhumerus -7.84674 -6.33119 85.9769
lradius 32.8808
lwrist 11.4274
lhand -19.863 16.411
lfingers 7.12502
lthumb 6.47208 46.2921
rfemur -26.2206 1.30974 20.7695
rtibia 53.4079
rfoot -22.0449 -11.3426
rtoes 12.6513
lfemur -4.94382 8.72676 -23.4733
ltibia 24.8309
lfoot -13.9775 1.68595
ltoes -8.91832
4880
root 22.5859 16.8291 -6.34467 5736.4 89.1718 -744.265
lowerback 0.200085 -0.602904 -3.37117
upperback 7.2449 -0.373238 -1.53064
thorax 7.47264 -0.2546 0.269024
lowerneck -10.2702 -1.42319 -0.893702
upperneck 32.7534 -1.07937 1.21655
head 12.5569 -0.0548019 0.561947
rclavicle 5.96354e-016 -1.59028e-015
rhumerus -29.595 -1.59294 -87.1947
rradius 25.8419
rwrist -2.69092
rhand -21.0732 6.33988
rfingers 7.12502
rthumb 5.30371 -23.5737
lclavicle 5.96354e-016 -1.59028e-015
lhumerus -7.64047 -6.7416 85.908
lradius 33.387
lwrist 11.679
lhand -19.8984 16.3539
lfingers 7.12502
lthumb 6.43794 46.2361
rfemur -26.6946 1.66176 20.7829
rtibia 52.0517
rfoot -22.2092 -11.3806
rtoes 12.4199
lfemur -4.41078 8.74289 -23.4905
ltibia 24.4334
lfoot -13.8949 1.6206
ltoes -9.16421
4881
root 22.6796 16.8389 -6.34826 5740.48 89.1644 -740.233
lowerback 0.205373 -0.623058 -3.44251
upperback 7.26448 -0.395296 -1.53773
thorax 7.4928 -0.269608 0.299805
lowerneck -10.2678 -1.40127 -0.881743
upperneck 32.8203 -1.02871 1.16655
head 12.5833 -0.0357184 0.548297
rclavicle -2.18663e-015 -7.95139e-015
rhumerus -29.5948 -1.81379 -87.1278
rradius 25.8017
rwrist -2.60631
rhand -21.0572 6.37732
rfingers 7.12502
rthumb 5.31916 -23.5359
lclavicle -2.18663e-015 -7.95139e-015
lhumerus -7.45983 -7.13714 85.8343
lradius 33.8666
lwrist 11.8971
lhand -19.9444 16.2746
lfingers 7.12502
lthumb 6.39347 46.1581
rfemur -27.1329 1.99507 20.7984
rtibia 50.6463
rfoot -22.3645 -11.4082
rtoes 12.3477
lfemur -3.84499 8.76677 -23.5005
ltibia 23.9642
lfoot -13.7757 1.55885
ltoes -9.41442
4882
root 22.7736 16.85 -6.35165 5744.15 89.1571 -736.611
lowerback 0.212207 -0.644172 -3.49908
upperback 7.27828 -0.419711 -1.54619
thorax 7.50564 -0.284799 0.320836
lowerneck -10.2616 -1.38144 -0.871347
upperneck 32.8781 -0.982322 1.1199
head 12.6052 -0.0185129 0.535517
rclavicle 1.39149e-015 -4.77083e-015
rhumerus -29.5953 -2.06282 -87.0608
rradius 25.762
rwrist -2.52315
rhand -21.0552 6.42823
rfingers 7.12502
rthumb 5.32101 -23.485
lclavicle 1.39149e-015 -4.77083e-015
lhumerus -7.30769 -7.52019 85.7607
lradius 34.3175
lwrist 12.0836
lhand -20.0047 16.1781
lfingers 7.12502
lthumb 6.33529 46.0633
rfemur -27.5396 2.30171 20.814
rtibia 49.1996
rfoot -22.5003 -11.4237
rtoes 12.462
lfemur -3.24935 8.78935 -23.5072
ltibia 23.4299
lfoot -13.629 1.50214
ltoes -9.62594
4883
root 22.8676 16.862 -6.35489 5747.38 89.1523 -733.431
lowerback 0.217868 -0.666297 -3.54199
upperback 7.28678 -0.446507 -1.55414
thorax 7.51328 -0.300354 0.334666
lowerneck -10.2568 -1.36429 -0.866891
upperneck 32.9297 -0.941982 1.08251
head 12.625 -0.00373194 0.526426
rclavicle -1.03368e-014 -8.74653e-015
rhumerus -29.6006 -2.33157 -86.9928
rradius 25.733
rwrist -2.44898
rhand -21.0582 6.47085
rfingers 7.12502
rthumb 5.31818 -23.4424
lclavicle -1.03368e-014 -8.74653e-015
lhumerus -7.18096 -7.89073 85.6918
lradius 34.7363
lwrist 12.2444
lhand -20.0792 16.0576
lfingers 7.12502
lthumb 6.2634 45.945
rfemur -27.9221 2.57513 20.8318
rtibia 47.7209
rfoot -22.603 -11.4448
rtoes 12.7157
lfemur -2.62984 8.80523 -23.5111
ltibia 22.8356
lfoot -13.4562 1.45611
ltoes -9.81492
4884
root 22.9621 16.8751 -6.35802 5750.44 89.1546 -730.438
lowerback 0.221334 -0.688877 -3.57428
upperback 7.29112 -0.474615 -1.56219
thorax 7.51752 -0.315907 0.342416
lowerneck -10.2577 -1.35176 -0.866441
upperneck 32.9737 -0.910694 1.0526
head 12.6431 0.00724022 0.519567
rclavicle 5.76476e-015 9.54166e-015
rhumerus -29.6132 -2.61286 -86.925
rradius 25.7217
rwrist -2.4004
rhand -21.0734 6.51178
rfingers 7.12502
rthumb 5.30351 -23.4019
lclavicle 5.76476e-015 9.54166e-015
lhumerus -7.07502 -8.25439 85.6308
lradius 35.1219
lwrist 12.3796
lhand -20.1477 15.9378
lfingers 7.12502
lthumb 6.19723 45.8271
rfemur -28.2841 2.80676 20.8483
rtibia 46.2207
rfoot -22.6485 -11.5017
rtoes 12.9892
lfemur -1.98594 8.81342 -23.5163
ltibia 22.1835
lfoot -13.2512 1.41946
ltoes -10.0097
4885
root 23.0569 16.8884 -6.36104 5753.69 89.1659 -727.247
lowerback 0.222077 -0.71214 -3.60242
upperback 7.29189 -0.50397 -1.5705
thorax 7.51947 -0.331821 0.347498
lowerneck -10.2619 -1.34445 -0.871952
upperneck 33.0064 -0.889943 1.03259
head 12.6574 0.0137372 0.515985
rclavicle 5.56597e-015 2.38542e-015
rhumerus -29.6334 -2.88816 -86.8615
rradius 25.728
rwrist -2.39444
rhand -21.0993 6.55337
rfingers 7.12502
rthumb 5.27843 -23.3609
lclavicle 5.56597e-015 2.38542e-015
lhumerus -6.98481 -8.60718 85.5805
lradius 35.4666
lwrist 12.4957
lhand -20.2157 15.7984
lfingers 7.12502
lthumb 6.13156 45.6896
rfemur -28.6256 2.98374 20.8628
rtibia 44.7101
rfoot -22.6351 -11.5849
rtoes 13.228
lfemur -1.32121 8.81275 -23.5276
ltibia 21.4824
lfoot -13.0192 1.39001
ltoes -10.2015
